#N canvas 1112 421 500 426 12;
#X obj 201 326 dac~;
#X obj 227 57 vsl 15 128 0 127 0 0 empty empty empty 0 -9 0 10 -262144
-1 -1 6400 1;
#X obj 203 291 *~ 0;
#X floatatom 227 197 5 0 0 0 - - -;
#X obj 228 237 / 127;
#X floatatom 228 265 5 0 0 0 - - -;
#X obj 82 201 osc~;
#X obj 85 130 mtof;
#X floatatom 103 65 0 0 0 0 - - -;
#X obj 84 14 notein;
#X floatatom 84 88 0 0 0 0 - - -;
#X floatatom 123 40 0 0 0 0 - - -;
#X text 133 66 velocity;
#X text 152 42 channel;
#X text 134 13 (omni);
#X text 114 88 note;
#X floatatom 86 173 5 0 0 0 - - -;
#X connect 1 0 3 0;
#X connect 2 0 0 0;
#X connect 2 0 0 1;
#X connect 3 0 4 0;
#X connect 4 0 5 0;
#X connect 5 0 2 1;
#X connect 6 0 2 0;
#X connect 7 0 16 0;
#X connect 8 0 1 0;
#X connect 9 0 10 0;
#X connect 9 1 8 0;
#X connect 9 2 11 0;
#X connect 10 0 7 0;
#X connect 16 0 6 0;
