#N canvas 1254 1607 476 530 12;
#X obj 84 213 *~ 0, f 15;
#X obj 185 86 / 127;
#X floatatom 185 113 5 0 0 0 - - -;
#X obj 84 155 osc~;
#X obj 84 77 mtof;
#X floatatom 185 34 0 0 0 0 - - -;
#X floatatom 84 38 0 0 0 0 - - -;
#X floatatom 84 102 5 0 0 0 - - -;
#X text 91 57 MIDI note;
#X text 191 56 MIDI velocity;
#X text 94 119 frequency;
#X text 92 172 sine wave;
#X text 200 135 amplitude;
#X obj 83 12 inlet;
#X obj 185 10 inlet;
#X obj 84 240 outlet~;
#X connect 0 0 15 0;
#X connect 1 0 2 0;
#X connect 2 0 0 1;
#X connect 3 0 0 0;
#X connect 4 0 7 0;
#X connect 5 0 1 0;
#X connect 6 0 4 0;
#X connect 7 0 3 0;
#X connect 13 0 6 0;
#X connect 14 0 5 0;
