#N canvas 1834 1778 733 467 12;
#X obj 24 327 dac~;
#X obj 11 60 notein 1;
#X text 11 5 MIDI note inputs;
#X text 10 22 on server \, MIDI channels are 0-15;
#X text 11 37 on Pd \, MIDI channels are 1-16;
#X obj 10 154 +~;
#X obj 10 83 oneVoice;
#X obj 76 82 oneVoice;
#X obj 142 81 oneVoice;
#X obj 206 81 oneVoice;
#X obj 271 80 oneVoice;
#X obj 337 79 oneVoice;
#X obj 403 78 oneVoice;
#X obj 467 78 oneVoice;
#X obj 10 108 /~ 16;
#X obj 76 107 /~ 16;
#X obj 142 106 /~ 16;
#X obj 206 106 /~ 16;
#X obj 271 105 /~ 16;
#X obj 337 104 /~ 16;
#X obj 403 103 /~ 16;
#X obj 467 103 /~ 16;
#X obj 77 59 notein 2;
#X obj 143 58 notein 3;
#X obj 207 58 notein 4;
#X obj 272 57 notein 5;
#X obj 338 56 notein 6;
#X obj 404 55 notein 7;
#X obj 468 55 notein 8;
#X obj 66 254 +~;
#X obj 66 183 oneVoice;
#X obj 132 182 oneVoice;
#X obj 198 181 oneVoice;
#X obj 262 181 oneVoice;
#X obj 327 180 oneVoice;
#X obj 393 179 oneVoice;
#X obj 459 178 oneVoice;
#X obj 523 178 oneVoice;
#X obj 66 208 /~ 16;
#X obj 132 207 /~ 16;
#X obj 198 206 /~ 16;
#X obj 262 206 /~ 16;
#X obj 327 205 /~ 16;
#X obj 393 204 /~ 16;
#X obj 459 203 /~ 16;
#X obj 523 203 /~ 16;
#X obj 67 160 notein 9;
#X obj 133 159 notein 10;
#X obj 199 158 notein 11;
#X obj 263 158 notein 12;
#X obj 328 157 notein 13;
#X obj 394 156 notein 14;
#X obj 460 155 notein 15;
#X obj 524 155 notein 16;
#X obj 18 288 +~;
#X connect 1 0 6 0;
#X connect 1 1 6 1;
#X connect 5 0 54 0;
#X connect 6 0 14 0;
#X connect 7 0 15 0;
#X connect 8 0 16 0;
#X connect 9 0 17 0;
#X connect 10 0 18 0;
#X connect 11 0 19 0;
#X connect 12 0 20 0;
#X connect 13 0 21 0;
#X connect 14 0 5 0;
#X connect 15 0 5 0;
#X connect 16 0 5 0;
#X connect 17 0 5 0;
#X connect 18 0 5 0;
#X connect 19 0 5 0;
#X connect 20 0 5 0;
#X connect 21 0 5 0;
#X connect 22 0 7 0;
#X connect 22 1 7 1;
#X connect 23 0 8 0;
#X connect 23 1 8 1;
#X connect 24 0 9 0;
#X connect 24 1 9 1;
#X connect 25 0 10 0;
#X connect 25 1 10 1;
#X connect 26 0 11 0;
#X connect 26 1 11 1;
#X connect 27 0 12 0;
#X connect 27 1 12 1;
#X connect 28 0 13 0;
#X connect 28 1 13 1;
#X connect 29 0 54 1;
#X connect 30 0 38 0;
#X connect 31 0 39 0;
#X connect 32 0 40 0;
#X connect 33 0 41 0;
#X connect 34 0 42 0;
#X connect 35 0 43 0;
#X connect 36 0 44 0;
#X connect 37 0 45 0;
#X connect 38 0 29 0;
#X connect 39 0 29 0;
#X connect 40 0 29 0;
#X connect 41 0 29 0;
#X connect 42 0 29 0;
#X connect 43 0 29 0;
#X connect 44 0 29 0;
#X connect 45 0 29 0;
#X connect 46 0 30 0;
#X connect 46 1 30 1;
#X connect 47 0 31 0;
#X connect 47 1 31 1;
#X connect 48 0 32 0;
#X connect 48 1 32 1;
#X connect 49 0 33 0;
#X connect 49 1 33 1;
#X connect 50 0 34 0;
#X connect 50 1 34 1;
#X connect 51 0 35 0;
#X connect 51 1 35 1;
#X connect 52 0 36 0;
#X connect 52 1 36 1;
#X connect 53 0 37 0;
#X connect 53 1 37 1;
#X connect 54 0 0 0;
#X connect 54 0 0 1;
